<?xml version="1.0" encoding="UTF-8" standalone="no"?>
<!-- Created with Inkscape (http://www.inkscape.org/) -->
<svg
   xmlns:dc="http://purl.org/dc/elements/1.1/"
   xmlns:cc="http://creativecommons.org/ns#"
   xmlns:rdf="http://www.w3.org/1999/02/22-rdf-syntax-ns#"
   xmlns:svg="http://www.w3.org/2000/svg"
   xmlns="http://www.w3.org/2000/svg"
   xmlns:sodipodi="http://sodipodi.sourceforge.net/DTD/sodipodi-0.dtd"
   xmlns:inkscape="http://www.inkscape.org/namespaces/inkscape"
   width="792pt"
   height="612pt"
   id="svg8376"
   sodipodi:version="0.32"
   inkscape:version="0.46"
   inkscape:export-filename="C:\Users\Arjun\Documents\eclipse\hkn\static\images\site\logo.png"
   inkscape:export-xdpi="24.59339"
   inkscape:export-ydpi="24.59339"
   sodipodi:docname="logo.svg"
   inkscape:output_extension="org.inkscape.output.svg.inkscape">
  <defs
     id="defs8378">
    <inkscape:perspective
       sodipodi:type="inkscape:persp3d"
       inkscape:vp_x="0 : 382.5 : 1"
       inkscape:vp_y="0 : 1000 : 0"
       inkscape:vp_z="990 : 382.5 : 1"
       inkscape:persp3d-origin="495 : 255 : 1"
       id="perspective8385" />
  </defs>
  <sodipodi:namedview
     inkscape:document-units="in"
     pagecolor="#ffffff"
     bordercolor="#666666"
     borderopacity="1.0"
     inkscape:pageopacity="0.0"
     inkscape:pageshadow="2"
     inkscape:zoom="0.43415836"
     inkscape:cx="408.99808"
     inkscape:cy="380"
     inkscape:current-layer="layer1"
     id="namedview8380"
     showgrid="false"
     inkscape:window-width="640"
     inkscape:window-height="669"
     inkscape:window-x="23"
     inkscape:window-y="23" />
  <metadata
     id="metadata8382">
    <rdf:RDF>
      <cc:Work
         rdf:about="">
        <dc:format>image/svg+xml</dc:format>
        <dc:type
           rdf:resource="http://purl.org/dc/dcmitype/StillImage" />
      </cc:Work>
    </rdf:RDF>
  </metadata>
  <g
     inkscape:label="Layer 1"
     inkscape:groupmode="layer"
     id="layer1">
    <path
       id="path2463"
       d="M 110.07632,446.97454 L 110.15505,438.4092 L 162.45527,438.34795 L 214.75549,438.2867 L 214.75549,446.91328 L 214.75549,455.53985 L 162.37656,455.53985 L 109.99763,455.53985 L 110.07632,446.97454 z M 110.13527,436.44983 C 110.06387,436.39055 110.00538,424.18421 110.00538,409.32455 L 110.00538,382.30703 L 162.38044,382.30703 L 214.75549,382.30703 L 214.75574,409.428 L 214.75603,436.54895 L 207.19934,436.47439 L 199.64262,436.39982 L 198.44497,435.8214 C 197.78623,435.5033 196.21611,434.88844 194.95585,434.45508 L 192.66439,433.66717 L 191.16385,432.35113 C 188.83465,430.30833 185.12293,424.97169 184.28903,422.46663 L 183.98128,421.54205 L 184.1371,421.04775 L 184.29291,420.55348 L 184.84518,420.4081 L 185.3974,420.26273 L 187.24272,420.54026 L 189.08806,420.81784 L 195.41228,423.07974 L 201.73654,425.34165 L 203.11213,425.35975 L 204.48772,425.37786 L 204.98269,425.03713 L 205.47762,424.69644 L 205.47762,424.12934 L 205.47762,423.56225 L 203.98119,422.52302 L 202.48476,421.48378 L 202.48476,421.13454 L 202.48476,420.7853 L 203.08928,420.7853 C 203.42177,420.7853 204.5224,421.06456 205.53517,421.4059 C 207.67739,422.12792 208.18766,422.16057 209.37431,421.65157 L 210.24844,421.27664 L 210.55662,420.79905 C 210.7261,420.53634 210.86475,420.08586 210.86475,419.79799 L 210.86475,419.27451 L 209.5619,418.10598 C 208.84535,417.46331 207.83527,416.44592 207.31724,415.84514 L 206.37547,414.75285 L 206.37234,412.74205 L 206.36917,410.73129 L 205.00673,409.2418 C 204.25735,408.4226 203.30323,407.27754 202.88644,406.69726 L 202.12859,405.64222 L 200.09156,405.64222 L 198.05457,405.64222 L 197.43655,404.77336 L 196.8185,403.90448 L 195.29974,403.90448 L 193.78093,403.90448 L 192.0723,403.16885 L 190.36366,402.43318 L 188.74101,402.14612 L 187.11836,401.8591 L 185.14958,400.50538 L 183.18081,399.15174 L 180.77038,398.17909 L 178.35992,397.20641 L 176.00875,396.70762 L 173.65756,396.20885 L 171.43011,396.20885 L 169.20267,396.20885 L 166.54798,396.94655 C 165.08793,397.35232 163.08536,398.02257 162.09793,398.43605 L 160.3025,399.18782 L 158.57306,399.18391 L 156.84366,399.18003 L 155.04792,398.81818 L 153.25221,398.45632 L 148.1366,398.18358 L 143.02101,397.91081 L 139.60696,398.28144 L 136.19292,398.65209 L 133.52472,399.45476 L 130.8565,400.25745 L 128.23567,401.71153 L 125.6148,403.16562 L 123.76093,404.83834 C 122.74127,405.75835 121.3683,407.16652 120.70979,407.96764 L 119.51258,409.42419 L 118.97707,410.69832 L 118.44158,411.97252 L 118.12519,415.0756 C 117.95119,416.78229 117.71912,419.85437 117.60951,421.90239 L 117.41015,425.62608 L 116.88404,426.49497 C 116.59465,426.97282 115.86926,428.55163 115.27205,430.00336 L 114.18619,432.64289 L 113.96635,434.47182 L 113.74648,436.30072 L 112.00581,436.42913 C 111.0484,436.49975 110.2067,436.50907 110.13527,436.44983 z M 126.02241,435.68353 L 124.8978,434.94223 L 123.81142,434.69192 C 123.21392,434.55427 122.56464,434.44098 122.3686,434.44025 C 122.17254,434.43949 121.94239,434.34518 121.85704,434.23067 L 121.70187,434.02244 L 122.91769,433.45566 L 124.13353,432.88886 L 126.33041,432.68452 L 128.52729,432.48013 L 129.43294,432.09169 L 130.33855,431.70324 L 131.556,430.21621 L 132.77344,428.7292 L 133.18821,428.7292 L 133.60297,428.7292 L 137.74115,432.34028 C 140.01715,434.3264 141.92426,436.05796 141.97908,436.18811 L 142.07889,436.42483 L 134.61291,436.42483 L 127.14701,436.42483 L 126.02241,435.68353 z M 157.34388,435.4356 L 155.44987,434.46972 L 153.75249,434.31652 C 152.81891,434.23229 151.78571,434.14156 151.45649,434.11492 L 150.85792,434.06648 L 150.85792,430.13759 L 150.85792,426.20868 L 152.50399,425.71165 C 153.40934,425.43831 154.5146,425.12091 154.96014,425.00634 L 155.77013,424.79806 L 156.38172,424.93074 L 156.99329,425.06337 L 156.99329,425.28866 C 156.99329,425.41255 156.52192,426.08231 155.94577,426.77705 L 154.89828,428.04017 L 154.89939,429.56384 L 154.90054,431.08752 L 155.47496,431.83228 C 155.79091,432.24186 156.86607,433.35896 157.86423,434.31475 C 160.42585,436.76761 160.33587,436.96139 157.34388,435.4356 z M 168.83116,435.01866 L 167.35077,433.61878 L 165.44336,432.90141 L 163.53598,432.18403 L 163.63159,431.95653 C 163.83838,431.46463 167.63428,428.13608 168.75956,427.45993 L 169.95239,426.7432 L 170.62286,426.7432 L 171.29329,426.7432 L 176.7881,431.33693 C 179.81028,433.86349 182.32783,436.04188 182.38271,436.17776 L 182.48251,436.42483 L 176.39698,436.4217 L 170.31151,436.41856 L 168.83116,435.01866 z"
       style="opacity:1;fill:#d8bf3b;fill-opacity:0.79215686;fill-rule:evenodd" />
    <g
       id="g8283"
       transform="matrix(0.2959431,0,0,0.2959431,49.379642,309.82414)">
      <rect
         y="465.46356"
         x="166.67517"
         height="31.31473"
         width="132.32999"
         id="rect8279"
         style="opacity:1;fill:#ffffff;fill-opacity:1;fill-rule:evenodd;stroke:#ffffff;stroke-width:5.34399986;stroke-miterlimit:4;stroke-dasharray:none;stroke-opacity:1" />
      <rect
         y="440.20975"
         x="193.9493"
         height="39.39595"
         width="50.507626"
         id="rect8281"
         style="opacity:1;fill:#ffffff;fill-opacity:1;fill-rule:evenodd;stroke:#ffffff;stroke-width:5.34399986;stroke-miterlimit:4;stroke-dasharray:none;stroke-opacity:1" />
    </g>
    <g
       id="g8287"
       transform="matrix(0.3502285,0,0,0.2959431,132.40305,309.22624)">
      <rect
         y="465.46356"
         x="166.67517"
         height="31.31473"
         width="132.32999"
         id="rect8289"
         style="opacity:1;fill:#ffffff;fill-opacity:1;fill-rule:evenodd;stroke:#ffffff;stroke-width:5.34399986;stroke-miterlimit:4;stroke-dasharray:none;stroke-opacity:1" />
      <rect
         y="440.20975"
         x="193.9493"
         height="39.39595"
         width="50.507626"
         id="rect8291"
         style="opacity:1;fill:#ffffff;fill-opacity:1;fill-rule:evenodd;stroke:#ffffff;stroke-width:5.34399986;stroke-miterlimit:4;stroke-dasharray:none;stroke-opacity:1" />
    </g>
    <g
       id="g8307"
       transform="matrix(0.2959431,0,0,0.2959431,49.379642,309.82414)">
      <rect
         y="231.10817"
         x="458.60925"
         height="42.426407"
         width="156.57364"
         id="rect8299"
         style="opacity:1;fill:#ffffff;fill-opacity:1;fill-rule:evenodd;stroke:#ffffff;stroke-width:5.34399986;stroke-miterlimit:4;stroke-dasharray:none;stroke-opacity:1" />
      <rect
         y="267.47366"
         x="510.12704"
         height="21.213203"
         width="72.73098"
         id="rect8303"
         style="opacity:1;fill:#ffffff;fill-opacity:1;fill-rule:evenodd;stroke:#ffffff;stroke-width:5.34399986;stroke-miterlimit:4;stroke-dasharray:none;stroke-opacity:1" />
      <rect
         y="280.60565"
         x="534.37067"
         height="31.31473"
         width="46.467018"
         id="rect8305"
         style="opacity:1;fill:#ffffff;fill-opacity:1;fill-rule:evenodd;stroke:#ffffff;stroke-width:5.34399986;stroke-miterlimit:4;stroke-dasharray:none;stroke-opacity:1" />
    </g>
    <g
       id="g8312"
       transform="matrix(-0.2959431,0,0,0.2959431,276.72927,306.83467)">
      <rect
         y="231.10817"
         x="458.60925"
         height="42.426407"
         width="156.57364"
         id="rect8314"
         style="opacity:1;fill:#ffffff;fill-opacity:1;fill-rule:evenodd;stroke:#ffffff;stroke-width:5.34399986;stroke-miterlimit:4;stroke-dasharray:none;stroke-opacity:1" />
      <rect
         y="267.47366"
         x="510.12704"
         height="21.213203"
         width="72.73098"
         id="rect8316"
         style="opacity:1;fill:#ffffff;fill-opacity:1;fill-rule:evenodd;stroke:#ffffff;stroke-width:5.34399986;stroke-miterlimit:4;stroke-dasharray:none;stroke-opacity:1" />
      <rect
         y="280.60565"
         x="534.37067"
         height="31.31473"
         width="46.467018"
         id="rect8318"
         style="opacity:1;fill:#ffffff;fill-opacity:1;fill-rule:evenodd;stroke:#ffffff;stroke-width:5.34399986;stroke-miterlimit:4;stroke-dasharray:none;stroke-opacity:1" />
    </g>
    <path
       style="fill:#200d7b;fill-opacity:0.98039216"
       d="M 161.83335,346.83172 C 159.68261,346.83172 61.058034,415.69681 58.974669,418.65338 L 57.555936,419.83415 C 57.780148,419.83415 109.73813,456.67281 109.73813,456.67281 L 161.53741,493.21251 L 163.89571,491.76055 C 165.19438,490.96349 188.64186,474.52283 216.00017,455.22084 L 265.74634,420.12385 L 264.70129,418.64414 C 262.60375,415.68282 163.97714,346.83172 161.83335,346.83172 z M 162.46223,357.56889 L 162.57321,357.72612 L 204.93005,387.35741 C 227.41463,403.24825 246.63935,417.08102 247.64757,418.08925 L 249.47872,419.92039 L 207.87098,449.28348 C 184.98613,465.43558 162.79717,480.99592 160.97327,481.44878 L 159.62303,480.30201 L 118.7459,451.41057 C 96.261327,435.51973 77.036606,421.68697 76.028381,420.67874 L 74.197234,418.8476 L 115.80497,389.4845 C 138.68983,373.3324 160.63835,358.02176 162.46223,357.56889 z M 152.99206,369.45286 L 118.01529,394.14561 L 83.03853,418.8476 L 84.971408,420.78047 C 86.035696,421.84477 101.77453,433.15265 119.94817,445.90788 L 152.99206,469.10241 L 153.73191,465.2459 C 154.13848,463.12558 156.02282,460.18021 157.91211,458.70741 L 161.5929,457.51439 L 165.30144,458.15252 L 168.02966,460.76976 L 169.97179,464.69102 L 170.6839,469.10241 L 203.72778,445.90788 C 221.90141,433.15111 237.64026,421.84477 238.70455,420.78047 L 240.63743,418.8476 L 205.66066,394.15485 L 170.6839,369.46211 L 169.94404,373.42035 C 169.53748,375.59752 167.65313,378.58777 165.76384,380.06057 L 161.5929,381.01314 L 158.37452,380.61546 L 154.65674,377.50806 L 153.70417,373.97524 L 152.99206,369.45286 z M 161.8611,391.13993 C 190.52278,391.13993 213.78059,403.8052 213.78059,419.41174 C 213.78059,435.01828 190.52278,447.68354 161.8611,447.68354 C 133.19943,447.68353 109.93235,435.01827 109.93235,419.41174 C 109.93235,403.8052 133.19943,391.13993 161.8611,391.13993 z"
       id="path6121"
       sodipodi:nodetypes="cccccccccccccccccccccccccccccccccccccccccccccccccsssc" />
    <path
       transform="matrix(0.31645,0,0,0.2931987,48.661317,420.23372)"
       d="M 377.14286,153.07646 A 19.285715,19.285715 0 1 1 338.57143,153.07646 A 19.285715,19.285715 0 1 1 377.14286,153.07646 z"
       sodipodi:ry="19.285715"
       sodipodi:rx="19.285715"
       sodipodi:cy="153.07646"
       sodipodi:cx="357.85715"
       id="path3392"
       style="opacity:1;fill:#ffffff;fill-opacity:1;fill-rule:evenodd;stroke:#ffffff;stroke-width:12.22399998;stroke-miterlimit:4;stroke-dasharray:none;stroke-opacity:1"
       sodipodi:type="arc" />
    <path
       transform="matrix(0.3233086,0,0,0.2923066,46.145032,328.96914)"
       d="M 377.14286,153.07646 A 19.285715,19.285715 0 1 1 338.57143,153.07646 A 19.285715,19.285715 0 1 1 377.14286,153.07646 z"
       sodipodi:ry="19.285715"
       sodipodi:rx="19.285715"
       sodipodi:cy="153.07646"
       sodipodi:cx="357.85715"
       id="path3390"
       style="opacity:1;fill:#ffffff;fill-opacity:1;fill-rule:evenodd;stroke:#ffffff;stroke-width:12.22399998;stroke-miterlimit:4;stroke-dasharray:none;stroke-opacity:1"
       sodipodi:type="arc" />
    <flowRoot
       xml:space="preserve"
       id="flowRoot8340"
       style="font-size:88px;font-style:normal;font-variant:normal;font-weight:normal;font-stretch:normal;text-align:start;line-height:125%;writing-mode:lr-tb;text-anchor:start;fill:#000000;fill-opacity:1;stroke:none;stroke-width:1px;stroke-linecap:butt;stroke-linejoin:miter;stroke-opacity:1;font-family:Agency FB;-inkscape-font-specification:Agency FB"
       transform="matrix(0.7792831,0,0,0.7792831,79.127597,239.65708)"><flowRegion
         id="flowRegion8342"><rect
           id="rect8344"
           width="1022.8571"
           height="201.42859"
           x="292.85715"
           y="145.21933"
           style="font-size:88px;font-style:normal;font-variant:normal;font-weight:normal;font-stretch:normal;text-align:start;line-height:125%;writing-mode:lr-tb;text-anchor:start;fill:#000000;fill-opacity:1;font-family:Agency FB;-inkscape-font-specification:Agency FB" /></flowRegion><flowPara
         id="flowPara8346">eta kappa nu : mu chapter</flowPara><flowPara
         id="flowPara8348" /></flowRoot>    <text
       xml:space="preserve"
       style="font-size:43.63985443px;font-style:normal;font-variant:normal;font-weight:normal;font-stretch:normal;text-align:start;line-height:125%;writing-mode:lr-tb;text-anchor:start;fill:#000000;fill-opacity:1;stroke:none;stroke-width:1px;stroke-linecap:butt;stroke-linejoin:miter;stroke-opacity:1;font-family:Agency FB;-inkscape-font-specification:Agency FB"
       x="370.5795"
       y="465.26349"
       id="text8362"
       sodipodi:linespacing="125%"><tspan
         sodipodi:role="line"
         id="tspan8364"
         x="370.5795"
         y="465.26349">University of California, Berkeley</tspan></text>
  </g>
</svg>
